<svg xmlns="http://www.w3.org/2000/svg" xmlns:xlink="http://www.w3.org/1999/xlink" width="500" zoomAndPan="magnify" viewBox="0 0 375 374.999991" height="500" preserveAspectRatio="xMidYMid meet" version="1.0"><defs><clipPath id="a6c79c685c"><path d="M 123.066406 142.15625 L 230 142.15625 L 230 232.90625 L 123.066406 232.90625 Z M 123.066406 142.15625 " clip-rule="nonzero"/></clipPath><clipPath id="7378889f2f"><path d="M 173 142.15625 L 252 142.15625 L 252 200 L 173 200 Z M 173 142.15625 " clip-rule="nonzero"/></clipPath><clipPath id="1667e8ec2b"><path d="M 77 91.695312 L 298 91.695312 L 298 282.945312 L 77 282.945312 Z M 77 91.695312 " clip-rule="nonzero"/></clipPath><clipPath id="0adc8d9261"><path d="M 295.957031 192.679688 L 246.253906 278.109375 C 244.382812 281.320312 240.949219 283.296875 237.234375 283.296875 L 137.757812 283.296875 C 134.042969 283.296875 130.609375 281.320312 128.742188 278.109375 L 79.035156 192.679688 C 77.171875 189.472656 77.171875 185.515625 79.035156 182.308594 L 128.742188 96.878906 C 130.609375 93.667969 134.042969 91.695312 137.757812 91.695312 L 237.234375 91.695312 C 240.949219 91.695312 244.382812 93.667969 246.253906 96.878906 L 295.957031 182.308594 C 297.820312 185.515625 297.820312 189.472656 295.957031 192.679688 Z M 295.957031 192.679688 " clip-rule="nonzero"/></clipPath></defs><g clip-path="url(#a6c79c685c)"><path fill="#0097b2" d="M 229.558594 205.339844 L 229.558594 232.835938 L 217.390625 232.835938 L 211.285156 220.5 L 202.515625 220.5 L 208.292969 232.835938 L 189.035156 232.835938 L 183.417969 220.5 L 148.015625 220.5 L 142.363281 232.835938 L 123.144531 232.835938 L 165.390625 142.15625 L 165.921875 142.15625 L 192.804688 199.644531 L 173.914062 199.644531 L 165.757812 181.65625 L 154.941406 205.300781 Z M 229.558594 205.339844 " fill-opacity="1" fill-rule="nonzero"/></g><g clip-path="url(#7378889f2f)"><path fill="#ffbd59" d="M 251.847656 142.15625 L 251.847656 160.226562 L 229.558594 160.226562 L 229.558594 199.683594 L 211.285156 199.683594 L 211.285156 160.226562 L 182.148438 160.226562 L 173.296875 142.15625 Z M 251.847656 142.15625 " fill-opacity="1" fill-rule="nonzero"/></g><g clip-path="url(#1667e8ec2b)"><g clip-path="url(#0adc8d9261)"><path stroke-linecap="butt" transform="matrix(0.75, 0, 0, 0.75, 76.01934, 91.693552)" fill="none" stroke-linejoin="miter" d="M 293.250275 134.64819 L 226.979437 248.554448 C 224.484645 252.835698 219.90652 255.471115 214.953395 255.471115 L 82.317969 255.471115 C 77.364844 255.471115 72.786719 252.835698 70.297135 248.554448 L 4.021089 134.64819 C 1.536714 130.372148 1.536714 125.096106 4.021089 120.820064 L 70.297135 6.913807 C 72.786719 2.632556 77.364844 0.0023479 82.317969 0.0023479 L 214.953395 0.0023479 C 219.90652 0.0023479 224.484645 2.632556 226.979437 6.913807 L 293.250275 120.820064 C 295.73465 125.096106 295.73465 130.372148 293.250275 134.64819 Z M 293.250275 134.64819 " stroke="#02cde9" stroke-width="10" stroke-opacity="1" stroke-miterlimit="4"/></g></g></svg>